PathFileType	4	(X/Y/Z)	/home/abdul/Desktop/myosuite/custom_workspace/IK/output/S3_12_3.trc
DataRate	CameraRate	NumFrames	NumMarkers	Units	OrigDataRate	OrigDataStartFrame	OrigNumFrames
200.0	200.0	39	3	mm	200.0	140	1113
Frame#	Time	V_Shoulder			V_Elbow			V_Wrist		
		X1	Y1	Z1	X2	Y2	Z2	X3	Y3	Z3

140	0.695	-136.37647665708278	640.0199954984001	302.9207685691056	-314.31226852444223	469.14756639016707	18.041724633577722	-131.33846480356112	249.48287380658007	59.76804044308724
141	0.7	-136.23695170349797	639.786603892965	302.98458637717255	-313.94329808996133	468.6237233392703	18.047543337648747	-130.77468382500837	249.14800670561038	59.291111610010546
142	0.705	-136.09644845651266	639.556524393368	303.0474564271752	-313.5841095675187	468.12663108075856	18.04489502991686	-130.2457700253011	248.81704120349474	58.80279680930352
143	0.71	-135.95509299303305	639.3299293455075	303.1093463618909	-313.23481890953934	467.65611591665646	18.03391489604104	-129.7509373694169	248.4903053535958	58.30381812105111
144	0.715	-135.81301173863565	639.1069861836417	303.1702283317631	-312.8955306566172	467.2119518377065	18.014767972018177	-129.28936972724	248.16810850175773	57.79492040235486
145	0.72	-135.67033126580688	638.8878571320259	303.23007905452386	-312.5663383827225	466.7938619539848	17.987648731457654	-128.86022306205837	247.85074142770932	57.276870996959005
146	0.725	-135.52717809332748	638.6726989223476	303.2888798586957	-312.24732515160906	466.40152005238633	17.95278057293266	-128.4626276281669	247.53847655730146	56.75045941689158
147	0.73	-135.38367848710052	638.4616625278705	303.3466167110652	-311.9385639822532	466.03455227404356	17.91041521105341	-128.09569017282138	247.2315682427347	56.21649699527029
148	0.735	-135.23995826270968	638.2548929151416	303.4032802282921	-311.64011832122077	465.69253890438307	17.86083197535854	-127.75849613781885	246.93025310782042	55.675816509575995
149	0.74	-135.09614258998653	638.0525288140449	303.45886567288176	-311.35204251993827	465.37501626820085	17.804337021544633	-127.45011185601436	246.63475045522682	55.129271774847666
150	0.745	-134.95235579985552	637.8547025069141	303.51337293381397	-311.0743823149228	465.08147872184367	17.741262459948636	-127.16958673812806	246.345262732589	54.57773720639922
151	0.75	-134.80872119371492	637.6615396373452	303.5668064921806	-310.8071753091135	464.81138073432834	17.6719654065606	-126.91595544524705	246.0619760543056	54.02210735179846
152	0.755	-134.66536085560324	637.4731590392727	303.6191753722468	-310.5504514525386	464.56413904901206	17.596826962172862	-126.68824004248694	245.7850607758046	53.46329639198106
153	0.76	-134.5223954673912	637.2896725867967	303.6704930784026	-310.3042335206424	464.3391349172398	17.516251125564153	-126.48545212935076	245.5146721170338	52.902237611495345
154	0.765	-134.37994412722898	637.1111850651645	303.7207775185289	-310.0685375886971	464.13571639525276	17.4306636468719	-126.30659494240375	245.25095083191462	52.33988283798599
155	0.77	-134.23812417147113	636.9377940632334	303.7700509143479	-309.8433735008143	463.95320069553145	17.340510827520912	-126.1506654259801	244.99402392048893	51.77720185112569
156	0.775	-134.0970510002905	636.7695898876536	303.8183396993757	-309.62874533217155	463.7908765836789	17.24625827325118	-126.0166562667448	244.74400538048894	51.21518176129173
157	0.78	-133.95683790718627	636.6066554989328	303.86567440513784	-309.4246518431611	463.6480068119205	17.148389606920126	-125.90355788805749	244.5009969950622	50.65482635835938
158	0.785	-133.81759591258114	636.4490664694523	303.9120895363436	-309.23108692426354	463.5238305803018	17.047405147845378	-125.81036040022076	244.26508915339105	50.097155431045024
159	0.79	-133.67943360169522	636.2968909634288	303.95762343575416	-309.0480400305377	463.41756601671267	16.9438205645018	-125.7360555028472	244.0363617009531	49.543204057279496
160	0.795	-133.54245696687715	636.1501897387258	304.00231813950336	-308.8754966047055	463.32841266695084	16.83816550739168	-125.67963833574497	243.8148848161767	48.99402186612533
161	0.8	-133.4067692545646	636.0090161703383	304.0462192236605	-308.7134384878949	463.25555398615444	16.7309822288696	-125.64010927490078	243.60071991025282	48.450672271771516
162	0.805	-133.27247081704073	635.8734162952969	304.0893756428416	-308.5618443171826	463.1981598230917	16.62282419662456	-125.61647567033256	243.39392054686874	47.91423168014664
163	0.81	-133.13965896914524	635.7434288786479	304.13183956169496	-308.42068990915186	463.15538888898334	16.514254707401534	-125.60775352279137	243.19453337863018	47.385788668685485
164	0.815	-133.00842785009348	635.6190855000974	304.17366618009555	-308.2899486287529	463.1263912027575	16.405845507384907	-125.61296909650989	243.00259909693904	46.86644313976831
165	0.82	-132.87886829055049	635.5004106608241	304.2149135528934	-308.16959174281567	463.1103105048917	16.29817542546798	-125.63116046542622	242.8181533920869	46.3573054483253
166	0.825	-132.7510676851019	635.3874219098971	304.2556424050612	-308.0595887576259	463.10628663227845	16.191829025397716	-125.6613789905519	242.64122792032074	45.859495504063815
167	0.83	-132.62510987025766	635.2801299896574	304.2959159430852	-307.9599077400303	463.1134578468665	16.087395282514436	-125.7026907264028	242.4718512746237	45.37414184873397
168	0.835	-132.50107500812	635.178538999362	304.33579966343757	-307.870515621585	463.13096311116504	15.985466290504373	-125.75417775466953	242.31004995594668	44.902380708801076
169	0.84	-132.3790394758424	635.0826465763172	304.3753611589578	-307.79137848530763	463.1579443040634	15.886636003250898	-125.81493944356723	242.15584934161024	44.44535502384275
170	0.845	-132.25907576100118	634.992444093672	304.4146699239556	-307.7224618346358	463.1935483707988	15.791499016511253	-125.88409363157368	242.00927464758692	44.00421345093629
171	0.85	-132.14125236299842	634.9079168739823	304.4537971588292	-307.6637308442271	463.2369294013111	15.700649393761713	-125.96077773453564	241.8703518813611	43.58010934525069
172	0.855	-132.0256337006089	634.829044417605	304.49281557496926	-307.6151505922737	463.28725063164194	15.6146795401488	-126.04414977539662	241.73910878205612	43.17419971700818
173	0.86	-131.91228002578188	634.7558006449317	304.5317992006938	-307.57668627403166	463.34368636347034	15.534179128060538	-126.1333893360725	241.61557574451365	42.78764416493663
174	0.865	-131.80124734380288	634.6881541514264	304.57082318892805	-307.5483033962917	463.4054237973233	15.459734077392481	-126.22769843127188	241.49978672401053	42.42160378629605
175	0.87	-131.69258733991825	634.6260684743935	304.60996362731083	-307.52996795254705	463.4716647754568	15.39192559313207	-126.32630230432534	241.39178011830592	42.077240063533935
176	0.875	-131.58634731251996	634.569502370364	304.6492973513719	-307.5216465786341	463.5416274308651	15.331329262424866	-126.42845014535135	241.29159962372663	41.75571372760579
177	0.88	-131.4825701129866	634.5184101019605	304.6889017613876	-307.5233066886451	463.6145477393419	15.278514212820818	-126.53341573234138	241.19929506202357	41.45818359799147
178	0.885	-131.3812940922696	634.4727417330743	304.7288546434773	-307.53491659093567	463.6896809719918	15.23404233293101	-126.64049799599582	241.1149231747671	41.18580539944615
